<svg xmlns="http://www.w3.org/2000/svg" viewBox="0 0 128 128" role="img" aria-labelledby="title desc">
  <title id="title">Storefront Unlocker icon</title>
  <desc id="desc">A Shopify-inspired green lock with a centered white S.</desc>
  <path
    d="M40 48V40c0-17.67 10.74-30 26-30s26 12.33 26 30v8"
    fill="none"
    stroke="#A8CF5A"
    stroke-linecap="round"
    stroke-linejoin="round"
    stroke-width="12"
  />
  <path
    d="M33 40h51c5.52 0 10 4.48 10 10v43c0 5.52-4.48 10-10 10H33c-5.52 0-10-4.48-10-10V50c0-5.52 4.48-10 10-10Z"
    fill="#95BF47"
  />
  <path d="M94 40l11 7v48l-11 8V40Z" fill="#5E8E3E" />
  <path
    d="M33 40h51c4.15 0 7.74 2.53 9.27 6.13H23.73C25.26 42.53 28.85 40 33 40Z"
    fill="#B7DB7A"
    opacity="0.85"
  />
  <path
    d="M99.5 43.5l5.5 3.5v48l-5.5-4V43.5Z"
    fill="#7EAE45"
    opacity="0.85"
  />
  <text
    x="58"
    y="82"
    fill="#FFFFFF"
    font-family="Arial, Helvetica, sans-serif"
    font-size="46"
    font-weight="700"
    text-anchor="middle"
    dominant-baseline="middle"
  >
    S
  </text>
</svg>
